<svg version="1.1" width="322" height="208" viewBox="40 0 322 208" xmlns="http://www.w3.org/2000/svg" xmlns:xlink="http://www.w3.org/1999/xlink">
  <defs>
    <linearGradient id="grad_1" x1="29.375" y1="73.8672" x2="112.375" y2="73.8672" gradientUnits="userSpaceOnUse">
      <stop offset="0" stop-color="#8DC63F"/>
      <stop offset="1" stop-color="#006838"/>
    </linearGradient>
    <radialGradient id="grad_2" cx="70.875" cy="73.8672" r="33.9434" gradientUnits="userSpaceOnUse">
      <stop offset="0" stop-color="#D7DF23"/>
      <stop offset="1" stop-color="#009444"/>
    </radialGradient>
  </defs>
  <!-- Exported by Scratch - http://scratch.mit.edu/ -->
  <g id="ID0.8372216508723795">
    <path id="ID0.45600888039916754" fill="url(#grad_1)" d="M 70.875 28.632 C 47.991 28.632 29.375 47.249 29.375 70.132 C 29.375 93.014 47.992 111.632 70.875 111.632 C 93.759 111.632 112.375 93.014 112.375 70.132 C 112.375 47.250 93.759 28.632 70.875 28.632 Z " transform="matrix(1, 0, 0, 1, 11.5, -28.1)"/>
    <path id="ID0.4064396247267723" fill="url(#grad_2)" d="M 70.875 36.189 C 80.240 36.189 88.726 39.993 94.871 46.137 C 101.015 52.282 104.819 60.768 104.819 70.133 C 104.819 79.498 101.015 87.984 94.871 94.129 C 88.726 100.273 80.240 104.077 70.875 104.077 C 61.510 104.077 53.024 100.273 46.879 94.129 C 40.735 87.984 36.931 79.498 36.931 70.133 C 36.931 60.768 40.735 52.282 46.879 46.137 C 53.024 39.993 61.510 36.189 70.875 36.189 Z " transform="matrix(1, 0, 0, 1, 11.5, -28.1)"/>
  </g>
  <g id="ID0.2855375180952251" transform="matrix(1, 0, 0, 1, -157, -137)">
    <path id="ID0.25114564085379243" fill="none" stroke="#FFFF00" stroke-width="4" d="M 248.875 151.250 C 267.187 151.250 283.781 153.435 295.797 156.965 C 307.812 160.495 315.250 165.370 315.250 170.750 C 315.250 176.130 307.812 181.005 295.797 184.535 C 283.781 188.065 267.187 190.250 248.875 190.250 C 230.563 190.250 213.969 188.065 201.953 184.535 C 189.938 181.005 182.500 176.130 182.500 170.750 C 182.500 165.370 189.938 160.495 201.953 156.965 C 213.969 153.435 230.563 151.250 248.875 151.250 Z " transform="matrix(1.0627192258834839, -0.13025377690792084, 0.053252510726451874, 0.43056440353393555, -33.65, 138.4)"/>
    <path id="ID0.833781911060214" fill="none" stroke="#FFFF00" stroke-width="4" d="M 242.625 158 C 256.730 158 269.511 158.924 278.766 160.418 C 288.021 161.911 293.750 163.974 293.750 166.250 C 293.750 168.526 288.021 170.589 278.766 172.082 C 269.511 173.576 256.730 174.500 242.625 174.500 C 228.520 174.500 215.739 173.576 206.484 172.082 C 197.229 170.589 191.500 168.526 191.500 166.250 C 191.500 163.974 197.229 161.911 206.484 160.418 C 215.739 158.924 228.520 158 242.625 158 Z " transform="matrix(1.5045478343963623, -0.18032589554786682, 0.20579847693443298, 1.7164443731307983, -159.85, -61.65)"/>
  </g>
</svg>