<svg version="1.1" width="165" height="89" xmlns="http://www.w3.org/2000/svg" xmlns:xlink="http://www.w3.org/1999/xlink">
  <defs>
    <radialGradient id="grad_1" cx="0.8355" cy="0.7709999999999999" r="1.08615">
      <stop offset="0" stop-color="#990000" stop-opacity="1"/>
      <stop offset="1" stop-color="#FF9999" stop-opacity="1"/>
    </radialGradient>
    <radialGradient id="grad_2" cx="0.6690999999999999" cy="0.6354" r="0.86983">
      <stop offset="0" stop-color="#990000" stop-opacity="1"/>
      <stop offset="1" stop-color="#FF9999" stop-opacity="1"/>
    </radialGradient>
    <radialGradient id="grad_3" cx="0.805" cy="0.6829999999999999" r="1.0465">
      <stop offset="0" stop-color="#990000" stop-opacity="1"/>
      <stop offset="1" stop-color="#FF9999" stop-opacity="1"/>
    </radialGradient>
    <radialGradient id="grad_4" cx="0.6766" cy="0.42460000000000003" r="0.87958">
      <stop offset="0" stop-color="#990000" stop-opacity="1"/>
      <stop offset="1" stop-color="#FF9999" stop-opacity="1"/>
    </radialGradient>
  </defs>
  <!-- Exported by Scratch - http://scratch.mit.edu/ -->
  <g id="ID0.7751451847143471">
    <path id="ID0.45600888039916754" fill="url(#grad_1)" d="M 70.875 28.632 C 47.991 28.632 29.375 47.249 29.375 70.132 C 29.375 93.014 47.992 111.632 70.875 111.632 C 93.759 111.632 112.375 93.014 112.375 70.132 C 112.375 47.250 93.759 28.632 70.875 28.632 Z " transform="matrix(1, 0, 0, 1, 11.5, -28)"/>
    <path id="ID0.4064396247267723" fill="url(#grad_2)" d="M 70.875 36.189 C 80.240 36.189 88.726 39.993 94.871 46.137 C 101.015 52.282 104.819 60.768 104.819 70.133 C 104.819 79.498 101.015 87.984 94.871 94.129 C 88.726 100.273 80.240 104.077 70.875 104.077 C 61.510 104.077 53.024 100.273 46.879 94.129 C 40.735 87.984 36.931 79.498 36.931 70.133 C 36.931 60.768 40.735 52.282 46.879 46.137 C 53.024 39.993 61.510 36.189 70.875 36.189 Z " transform="matrix(1, 0, 0, 1, 11.5, -28)"/>
  </g>
  <g id="ID0.9670837190933526">
    <path id="ID0.25114564085379243" fill="none" stroke="#FFFF00" stroke-width="4" d="M 248.875 151.250 C 267.187 151.250 283.781 153.435 295.797 156.965 C 307.812 160.495 315.250 165.370 315.250 170.750 C 315.250 176.130 307.812 181.005 295.797 184.535 C 283.781 188.065 267.187 190.250 248.875 190.250 C 230.563 190.250 213.969 188.065 201.953 184.535 C 189.938 181.005 182.500 176.130 182.500 170.750 C 182.500 165.370 189.938 160.495 201.953 156.965 C 213.969 153.435 230.563 151.250 248.875 151.250 Z " transform="matrix(1.0627192258834839, -0.13025377690792084, 0.053252510726451874, 0.43056440353393555, -190.65, 1.4)"/>
    <path id="ID0.833781911060214" fill="none" stroke="#FFFF00" stroke-width="4" d="M 242.625 158 C 256.730 158 269.511 158.924 278.766 160.418 C 288.021 161.911 293.750 163.974 293.750 166.250 C 293.750 168.526 288.021 170.589 278.766 172.082 C 269.511 173.576 256.730 174.500 242.625 174.500 C 228.520 174.500 215.739 173.576 206.484 172.082 C 197.229 170.589 191.500 168.526 191.500 166.250 C 191.500 163.974 197.229 161.911 206.484 160.418 C 215.739 158.924 228.520 158 242.625 158 Z " transform="matrix(1.5045478343963623, -0.18032589554786682, 0.20579847693443298, 1.7164443731307983, -316.85, -198.65)"/>
  </g>
  <g id="ID0.7924121860414743">
    <path id="ID0.213035240303725" fill="url(#grad_3)" stroke="none" stroke-linecap="round" d="M 241.350 170.500 C 251.905 170.523 262.658 170.435 273.100 172.300 C 276.662 172.865 282.911 173.997 282.550 177.650 C 281.512 188.144 277.079 199.149 269.600 206.550 C 262.459 213.733 251.794 218.317 241.700 218.400 C 231.202 218.486 219.799 214.150 212.050 206.800 C 204.448 199.643 200.442 188.566 199 178.050 C 198.529 174.608 204.169 172.568 207.500 172 C 218.615 170.045 230.067 170.476 241.350 170.500 Z " transform="matrix(0.9883912205696106, -0.12603271007537842, 0.12588068842887878, 0.9871989488601685, -177.9, -102.2)"/>
    <path id="ID0.9306946559809148" fill="url(#grad_4)" stroke="none" d="M 253.350 168.650 C 264.377 168.800 275.660 168.381 286.400 170.750 C 289.084 171.342 290.886 174.349 290.350 176.750 C 288.319 185.847 285.745 195.942 279.150 202.400 C 272.355 209.054 262.407 213.875 252.900 213.650 C 242.626 213.407 231.927 208.599 224.750 201.300 C 218.298 194.737 216.244 184.635 215.100 175.550 C 214.766 172.890 217.921 170.425 220.550 169.950 C 231.347 168.003 242.502 168.502 253.350 168.650 Z " transform="matrix(0.8967363238334656, -0.11664862185716629, 0.11451707780361176, 0.8803500533103943, -164.15, -83.05)"/>
  </g>
</svg>